# AST/ASF file generated using VICON BodyLanguage
# -----------------------------------------------
:version 1.10
:name VICON
:units
  mass 1.0
  length 0.45
  angle deg
:documentation
   .ast/.asf automatically generated from VICON data using
   VICON BodyBuilder and BodyLanguage model FoxedUp or BRILLIANT.MOD
:root
   order TX TY TZ RX RY RZ
   axis XYZ
   position 0 0 0  
   orientation 0 0 0 
:bonedata
  begin
     id 1 
     name lhipjoint
     direction 0.570549 -0.739093 0.358072 
     length 2.41801 
     axis 0 0 0  XYZ
  end
  begin
     id 2 
     name lfemur
     direction 0.34202 -0.939693 0  
     length 7.44434  
     axis 0 0 20  XYZ
    dof rx ry rz
    limits (-160.0 20.0)
           (-70.0 70.0)
           (-60.0 70.0)
  end
  begin
     id 3 
     name ltibia
     direction 0.34202 -0.939693 0   
     length 7.60047   
     axis 0 0 20   XYZ
    dof rx
    limits (-10.0 170.0)
  end
  begin
     id 4 
     name lfoot
     direction 0.0909041 -0.249757 0.964032   
     length 2.03437   
     axis -90 7.62852e-016 20   XYZ
    dof rx rz
    limits (-45.0 90.0)
           (-70.0 20.0)
  end
  begin
     id 5 
     name ltoes
     direction 1.53547e-011 -4.2174e-011 1   
     length 1.02054   
     axis -90 7.62852e-016 20   XYZ
    dof rx
    limits (-90.0 20.0)
  end
  begin
     id 6 
     name rhipjoint
     direction -0.558096 -0.746754 0.361784   
     length 2.3932  
     axis 0 0 0  XYZ 
  end
  begin
     id 7 
     name rfemur
     direction -0.34202 -0.939693 0   
     length 7.3886   
     axis 0 0 -20   XYZ
    dof rx ry rz
    limits (-160.0 20.0)
           (-70.0 70.0)
           (-70.0 60.0)
  end
  begin
     id 8 
     name rtibia
     direction -0.34202 -0.939693 0   
     length 7.4839   
     axis 0 0 -20   XYZ
    dof rx
    limits (-10.0 170.0)
 end
 begin
     id 9 
     name rfoot
     direction -0.114619 -0.314914 0.942174   
     length 2.25127  
     axis -90 -7.62852e-016 -20   XYZ
    dof rx rz
    limits (-45.0 90.0)
           (-20.0 70.0)
  end
  begin
     id 10 
     name rtoes
     direction -1.53518e-011 -4.21881e-011 1   
     length 1.11821   
     axis -90 -7.62852e-016 -20   XYZ
    dof rx
    limits (-90.0 20.0)
  end
  begin
     id 11 
     name lowerback
     direction -0.00902269 0.996426 -0.0839821   
     length 2.25052   
     axis 0 0 0   XYZ
    dof rx ry rz
    limits (-20.0 45.0)
           (-30.0 30.0)
           (-30.0 30.0)
  end
  begin
     id 12 
     name upperback
     direction 0.0370973 0.999169 -0.0168941   
     length 2.24876   
     axis 0 0 0   XYZ
    dof rx ry rz
    limits (-20.0 45.0)
           (-30.0 30.0)
           (-30.0 30.0)
  end
  begin
     id 13 
     name thorax
     direction 0.0402726 0.998931 0.0227027   
     length 2.26408   
     axis 0 0 0   XYZ
    dof rx ry rz
    limits (-20.0 45.0)
           (-30.0 30.0)
           (-30.0 30.0)
  end
  begin
     id 14 
     name lowerneck
     direction -0.0733697 0.98508 0.155675   
     length 1.58204   
     axis 0 0 0   XYZ
    dof rx ry rz
    limits (-20.0 45.0)
           (-30.0 30.0)
           (-30.0 30.0)
  end
  begin
     id 15 
     name upperneck
     direction 0.0426554 0.993501 -0.105526   
     length 1.61222   
     axis 0 0 0   XYZ
    dof rx ry rz
    limits (-20.0 45.0)
           (-30.0 30.0)
           (-30.0 30.0)
  end
  begin
     id 16
     name head
     direction 0.020792 0.998384 -0.0528868  
     length 1.61527  
     axis 0 0 0   XYZ
    dof rx ry rz
    limits (-20.0 45.0)
           (-30.0 30.0)
           (-30.0 30.0)
  end
  begin
     id 17 
     name lclavicle
     direction 0.967109 0.155462 -0.201325  
     length 3.59357  
     axis 0 0 0   XYZ
    dof ry rz
    limits (-20.0 10.0)
           (0.0 20.0)
  end
  begin
     id 18 
     name lhumerus
     direction 1 -4.48968e-011 2.38195e-027   
     length 5.38154   
     axis 180 -30 -90   XYZ
    dof rx ry rz
    limits (-60.0 90.0)
           (-90.0 90.0)
           (-90.0 90.0)
  end
  begin
     id 19
     name lradius
     direction 1 -4.48961e-011 4.85371e-027   
     length 3.33312   
     axis 180 -30 -90   XYZ
    dof rx
    limits (-10.0 170.0)
  end
  begin
     id 20
     name lwrist
     direction 1 -4.48961e-011 4.76515e-027   
     length 1.66656   
     axis -3.27502e-015 90 90   XYZ
    dof ry
    limits (-180.0 0.0)
 end
  begin
     id 21 
     name lhand
     direction 1 -4.48951e-011 9.53074e-027   
     length 0.710789   
     axis -6.08098e-015 90 90   XYZ
    dof rx rz
    limits (-90.0 90.0)
           (-45.0 45.0)
  end
  begin
     id 22 
     name lfingers
     direction 1 -4.48953e-011 1.90613e-026   
     length 0.573057   
     axis -1.21619e-014 90 90   XYZ
    dof rx
    limits (0.0 90.0)
  end
  begin
     id 23
     name lthumb
     direction 0.707107 -6.34973e-011 0.707107   
     length 0.822798   
     axis -90 45 -9.86923e-015   XYZ
    dof rx rz
    limits (-45.0 45.0)
           (-45.0 45.0)
  end
  begin
     id 24 
     name rclavicle
     direction -0.9585 0.265289 -0.104398   
     length 3.42039  
     axis 0 0 0   XYZ 
    dof ry rz
    limits (-10.0 20.0)
           (-20.0 0.0)
  end
  begin
     id 25 
     name rhumerus
     direction -1 -4.48977e-011 2.21478e-027  
     length 5.16954   
     axis 180 30 90   XYZ
    dof rx ry rz
    limits (-90.0 60.0)
           (-90.0 90.0)
           (-90.0 90.0)
  end
  begin
     id 26 
     name rradius
     direction -1 -4.48967e-011 5.63677e-027   
     length 3.38287   
     axis 180 30 90   XYZ
    dof rx
    limits (-10.0 170.0)
  end
  begin
     id 27 
     name rwrist
     direction -1 -4.48967e-011 4.76501e-027   
     length 1.69144   
     axis -3.27502e-015 -90 -90   XYZ
    dof ry
    limits (-180.0 0.0)
  end
  begin
     id 28
     name rhand
     direction -1 -4.48902e-011 9.53292e-027   
     length 0.817967   
     axis -6.08098e-015 -90 -90   XYZ
    dof rx rz
    limits (-90.0 90.0)
           (-45.0 45.0)
  end
  begin
     id 29
     name rfingers
     direction -1 -4.49012e-011 1.90561e-026   
     length 0.659466   
     axis -1.21619e-014 -90 -90   XYZ
    dof rx
    limits (0.0 90.0)
  end
  begin
     id 30
     name rthumb
     direction -0.707107 -6.34944e-011 0.707107   
     length 0.946865   
     axis -90 -45 9.86923e-015   XYZ
    dof rx rz
    limits (-45.0 45.0)
           (-45.0 45.0)
  end
:hierarchy
  begin
    root lhipjoint rhipjoint lowerback
    lhipjoint lfemur
    lfemur ltibia
    ltibia lfoot
    lfoot ltoes
    rhipjoint rfemur
    rfemur rtibia
    rtibia rfoot
    rfoot rtoes
    lowerback upperback
    upperback thorax
    thorax lowerneck lclavicle rclavicle
    lowerneck upperneck
    upperneck head
    lclavicle lhumerus
    lhumerus lradius
    lradius lwrist
    lwrist lhand lthumb
    lhand lfingers
    rclavicle rhumerus
    rhumerus rradius
    rradius rwrist
    rwrist rhand rthumb
    rhand rfingers
  end

#!OML:ASF F:\twosubjects\two\wednesday\Session 1\Justin1.ASF
:FULLY-SPECIFIED
:DEGREES
149
root 2.41925 17.3957 2.71603 182.991 19.6115 -175.608
lowerback 3.72848 0.254933 0.316623
upperback 1.36501 0.535205 3.69535
thorax -0.721643 0.32578 3.60064
lowerneck -21.2408 -1.44516 -8.48685
upperneck 13.8284 -0.00670048 3.19188
head 7.74268 -0.134332 2.43696
rclavicle 1.43622e-014 -1.94809e-014
rhumerus 23.4596 14.3497 -59.6087
rradius 35.7344
rwrist -2.51598
rhand -5.4653 26.2322
rfingers 7.12502
rthumb 20.3463 -2.722
lclavicle 1.43622e-014 -1.94809e-014
lhumerus 28.6646 3.71834 52.2137
lradius 31.9983
lwrist -18.2887
lhand 3.42136 32.8918
lfingers 7.12502
lthumb 28.8631 60.679
rfemur 4.9331 6.61778 14.7797
rtibia 39.7094
rfoot 4.2387 1.95492
rtoes -9.55974
lfemur -27.6622 9.01921 -10.9286
ltibia 31.7105
lfoot -0.980909 2.68609
ltoes -6.70533
150
root 2.38525 17.4126 2.55508 182.838 19.5554 -175.578
lowerback 3.78547 0.289321 0.45779
upperback 1.50833 0.568693 3.37531
thorax -0.604121 0.336892 3.18787
lowerneck -21.6923 -1.42667 -8.31485
upperneck 14.1658 -0.0599835 3.51573
head 7.93294 -0.123377 2.51796
rclavicle 5.38209e-014 4.33351e-014
rhumerus 23.4823 14.6018 -59.1607
rradius 36.2793
rwrist -3.46389
rhand -5.58414 26.1419
rfingers 7.12502
rthumb 20.2321 -2.82446
lclavicle 5.38209e-014 4.33351e-014
lhumerus 28.6871 3.48559 52.0368
lradius 31.9271
lwrist -18.0698
lhand 3.26421 32.9756
lfingers 7.12502
lthumb 28.713 60.7883
rfemur 3.87689 6.85707 14.6794
rtibia 42.0146
rfoot 6.80521 1.94291
rtoes -6.83807
lfemur -27.0503 8.77442 -11.0803
ltibia 31.8844
lfoot -1.42847 2.83293
ltoes -6.65825
151
root 2.3525 17.4222 2.39346 182.725 19.2171 -175.598
lowerback 3.70578 0.248199 0.509943
upperback 1.62882 0.499709 3.12839
thorax -0.429854 0.298008 2.90689
lowerneck -21.9598 -1.46041 -8.34791
upperneck 14.3929 -0.157082 3.92968
head 8.05952 -0.132071 2.65576
rclavicle -1.5207e-014 -2.98177e-014
rhumerus 23.6694 15.1984 -58.3649
rradius 36.8171
rwrist -4.89707
rhand -6.20439 25.5911
rfingers 7.12502
rthumb 19.6359 -3.43727
lclavicle -1.5207e-014 -2.98177e-014
lhumerus 28.6203 3.29161 52.0145
lradius 31.9534
lwrist -17.749
lhand 3.2555 33.2105
lfingers 7.12502
lthumb 28.7047 61.0247
rfemur 2.83052 6.89311 14.5904
rtibia 44.3181
rfoot 9.25008 1.75201
rtoes -2.35111
lfemur -26.5516 8.71273 -11.3911
ltibia 31.989
lfoot -1.86267 2.4782
ltoes -6.19048
152
root 2.32564 17.4483 2.22722 182.49 18.8632 -176.306
lowerback 3.6008 0.291945 -0.335928
upperback 1.60073 0.503854 2.85712
thorax -0.404196 0.287771 3.10398
lowerneck -21.8795 -1.55143 -8.21981
upperneck 14.316 -0.321895 3.90021
head 8.03057 -0.205496 2.60231
rclavicle -4.63168e-014 5.1684e-015
rhumerus 23.6849 15.27 -57.8421
rradius 37.0746
rwrist -5.20789
rhand -6.6158 25.2247
rfingers 7.12502
rthumb 19.2403 -3.84355
lclavicle -4.63168e-014 5.1684e-015
lhumerus 28.3863 3.03356 52.3115
lradius 31.9908
lwrist -17.6291
lhand 3.51064 33.4767
lfingers 7.12502
lthumb 28.9484 61.2494
rfemur 1.68262 6.89462 13.7954
rtibia 46.5415
rfoot 11.6538 0.965874
rtoes 2.76039
lfemur -26.0983 8.70936 -12.4647
ltibia 32.1023
lfoot -2.39713 1.8745
ltoes -5.78378
153
root 2.30211 17.4775 2.06997 182.386 18.5449 -176.769
lowerback 3.77652 0.386717 -1.08692
upperback 1.29468 0.589031 2.7196
thorax -0.826739 0.326754 3.38019
lowerneck -21.2999 -1.64256 -8.26137
upperneck 14.1456 -0.489303 3.93245
head 7.88746 -0.285119 2.59418
rclavicle 3.71479e-014 -3.18055e-014
rhumerus 23.4021 15.2541 -57.5187
rradius 37.1715
rwrist -5.26205
rhand -7.05411 24.923
rfingers 7.12502
rthumb 18.8188 -4.18665
lclavicle 3.71479e-014 -3.18055e-014
lhumerus 27.895 2.62692 52.7973
lradius 31.9733
lwrist -17.746
lhand 3.66178 33.7462
lfingers 7.12502
lthumb 29.0927 61.494
rfemur 0.393054 6.90838 13.3024
rtibia 48.6908
rfoot 13.7583 -0.128148
rtoes 7.19781
lfemur -25.7122 8.41663 -13.1951
ltibia 32.2003
lfoot -2.92177 1.66898
ltoes -6.71053
154
root 2.27572 17.4954 1.91675 182.31 18.1396 -176.758
lowerback 3.9969 0.362739 -1.29174
upperback 1.14265 0.547114 2.71449
thorax -1.10498 0.308705 3.49109
lowerneck -20.9237 -1.74242 -8.34941
upperneck 13.9658 -0.614732 3.85468
head 7.77295 -0.356819 2.56295
rclavicle 7.25564e-015 5.36719e-014
rhumerus 23.5263 15.258 -57.2155
rradius 37.1935
rwrist -5.33536
rhand -7.37402 24.9098
rfingers 7.12502
rthumb 18.5111 -4.22949
lclavicle 7.25564e-015 5.36719e-014
lhumerus 27.4339 2.43547 53.1288
lradius 31.9738
lwrist -17.8097
lhand 3.69601 34.0456
lfingers 7.12502
lthumb 29.1254 61.7877
rfemur -0.721439 6.88434 13.3753
rtibia 50.7161
rfoot 15.2181 -0.913399
rtoes 8.77794
lfemur -25.2146 7.92686 -13.372
ltibia 32.2749
lfoot -3.47324 1.6882
ltoes -6.78074
155
root 2.24639 17.5087 1.76092 182.215 17.6724 -176.564
lowerback 4.05693 0.233989 -1.1487
upperback 1.2494 0.385731 2.73171
thorax -1.01678 0.228172 3.43603
lowerneck -21.2117 -1.79991 -8.39737
upperneck 14.0357 -0.627792 3.73113
head 7.84556 -0.377022 2.52875
rclavicle -5.13361e-014 9.93923e-016
rhumerus 24.0395 15.1349 -56.9014
rradius 37.3441
rwrist -5.41064
rhand -7.42725 25.108
rfingers 7.12502
rthumb 18.4599 -4.03614
lclavicle -5.13361e-014 9.93923e-016
lhumerus 27.2121 2.68976 53.4024
lradius 31.8827
lwrist -18.0544
lhand 3.74115 33.7995
lfingers 7.12502
lthumb 29.1685 61.5342
rfemur -1.68674 6.8252 13.6746
rtibia 52.6269
rfoot 16.1048 -1.82417
rtoes 9.17096
lfemur -24.6362 7.53749 -13.3822
ltibia 32.3896
lfoot -4.13192 1.63095
ltoes -5.49018
156
root 2.22832 17.5287 1.60006 182.057 17.4643 -176.588
lowerback 4.08641 0.155956 -1.32525
upperback 1.2517 0.272908 2.72075
thorax -1.02373 0.171208 3.53014
lowerneck -21.3247 -1.73071 -8.79343
upperneck 14.345 -0.478765 4.10722
head 7.96056 -0.294524 2.74342
rclavicle -8.03835e-014 3.04141e-014
rhumerus 24.4831 15.1415 -56.7449
rradius 37.3795
rwrist -5.2926
rhand -7.31118 25.3203
rfingers 7.12502
rthumb 18.5715 -3.81315
lclavicle -8.03835e-014 3.04141e-014
lhumerus 26.7121 3.05512 53.6663
lradius 31.8163
lwrist -18.3385
lhand 3.75121 33.2917
lfingers 7.12502
lthumb 29.1781 61.0247
rfemur -2.62924 6.86798 13.7562
rtibia 54.4498
rfoot 16.2775 -2.67354
rtoes 10.407
lfemur -24.0059 7.51895 -13.5891
ltibia 32.5585
lfoot -4.85722 1.47109
ltoes -3.65864
157
root 2.21585 17.5503 1.44022 181.804 17.3227 -176.97
lowerback 4.09395 0.145123 -1.86044
upperback 1.1978 0.222885 2.54603
thorax -1.08062 0.142778 3.65456
lowerneck -21.3684 -1.68908 -8.93579
upperneck 14.6949 -0.417591 4.31464
head 8.08208 -0.257988 2.85
rclavicle -1.18277e-014 1.09332e-014
rhumerus 24.8886 14.6114 -57.0913
rradius 37.0898
rwrist -4.55988
rhand -6.65069 25.9168
rfingers 7.12502
rthumb 19.2067 -3.15477
lclavicle -1.18277e-014 1.09332e-014
lhumerus 26.1725 3.09159 53.6694
lradius 31.9106
lwrist -18.2857
lhand 3.88526 33.3654
lfingers 7.12502
lthumb 29.3061 61.0761
rfemur -3.53396 6.8216 13.4458
rtibia 56.1601
rfoot 15.7425 -3.24396
rtoes 11.8246
lfemur -23.3892 7.59484 -14.1634
ltibia 32.7391
lfoot -5.4276 1.10261
ltoes -3.08951
158
root 2.20673 17.5626 1.29666 181.66 17.108 -177.159
lowerback 4.12999 0.162728 -2.2445
upperback 1.19453 0.221263 2.40141
thorax -1.10455 0.139742 3.72224
lowerneck -21.4965 -1.73542 -8.65583
upperneck 14.7549 -0.49791 4.03245
head 8.1284 -0.309426 2.69935
rclavicle 1.5381e-014 1.27222e-014
rhumerus 25.3776 13.526 -57.769
rradius 36.7327
rwrist -3.55763
rhand -6.19339 26.5609
rfingers 7.12502
rthumb 19.6464 -2.46638
lclavicle 1.5381e-014 1.27222e-014
lhumerus 25.8899 3.10124 53.7202
lradius 31.9883
lwrist -18.3434
lhand 3.90597 33.8299
lfingers 7.12502
lthumb 29.3259 61.5371
rfemur -4.53147 6.67163 13.3979
rtibia 57.7481
rfoot 14.7797 -3.98043
rtoes 11.9558
lfemur -22.8979 7.65658 -14.5425
ltibia 32.8361
lfoot -5.85194 0.755705
ltoes -3.88956
159
root 2.19855 17.5705 1.14836 181.524 17.2034 -176.955
lowerback 4.20952 0.338072 -2.24575
upperback 1.26977 0.454035 2.34165
thorax -1.09013 0.255525 3.64895
lowerneck -21.4143 -1.82372 -8.36434
upperneck 14.5079 -0.672972 3.82495
head 8.04121 -0.393952 2.55547
rclavicle 4.97086e-014 -1.39149e-014
rhumerus 25.7472 12.7794 -58.0688
rradius 36.7102
rwrist -3.11409
rhand -6.48282 26.5601
rfingers 7.12502
rthumb 19.3682 -2.49534
lclavicle 4.97086e-014 -1.39149e-014
lhumerus 25.7952 3.21286 54.0126
lradius 31.9771
lwrist -18.7035
lhand 3.61617 34.1184
lfingers 7.12502
lthumb 29.0492 61.8737
rfemur -5.45399 6.68774 13.7384
rtibia 59.1439
rfoot 13.4578 -4.84883
rtoes 11.971
lfemur -22.2115 7.89615 -14.4769
ltibia 32.9198
lfoot -6.40214 0.670295
ltoes -4.2802
